PathFileType	4	(X/Y/Z)	..\data\2015043\dynamic\2015043_C4_04.trc
DataRate	CameraRate	NumFrames	NumMarkers	Units	OrigDataRate	OrigDataStartFrame	OrigNumFrames
100.000000	100.000000	4	52	mm	100.000000	145	232
Frame#	Time	L_IAS			L_IPS			R_IPS			R_IAS			L_FTC			L_FLE			L_FME			L_FAX			L_TTC			L_FAL			L_TAM			L_FCC			L_FM1			L_FM2			L_FM5			R_FTC			R_FLE			R_FME			R_FAX			R_TTC			R_FAL			R_TAM			R_FCC			R_FM1			R_FM2			R_FM5			CV7			TV10			SXS			SJN			L_SIA			L_SRS			L_SAA			L_SAE			L_HLE			L_HME			L_UOA			L_RSP			L_UHE			L_HM2			L_HM5			R_SIA			R_SRS			R_SAA			R_SAE			R_HLE			R_HME			R_UOA			R_RSP			R_UHE			R_HM2			R_HM5			
		X1	Y1	Z1	X2	Y2	Z2	X3	Y3	Z3	X4	Y4	Z4	X5	Y5	Z5	X6	Y6	Z6	X7	Y7	Z7	X8	Y8	Z8	X9	Y9	Z9	X10	Y10	Z10	X11	Y11	Z11	X12	Y12	Z12	X13	Y13	Z13	X14	Y14	Z14	X15	Y15	Z15	X16	Y16	Z16	X17	Y17	Z17	X18	Y18	Z18	X19	Y19	Z19	X20	Y20	Z20	X21	Y21	Z21	X22	Y22	Z22	X23	Y23	Z23	X24	Y24	Z24	X25	Y25	Z25	X26	Y26	Z26	X27	Y27	Z27	X28	Y28	Z28	X29	Y29	Z29	X30	Y30	Z30	X31	Y31	Z31	X32	Y32	Z32	X33	Y33	Z33	X34	Y34	Z34	X35	Y35	Z35	X36	Y36	Z36	X37	Y37	Z37	X38	Y38	Z38	X39	Y39	Z39	X40	Y40	Z40	X41	Y41	Z41	X42	Y42	Z42	X43	Y43	Z43	X44	Y44	Z44	X45	Y45	Z45	X46	Y46	Z46	X47	Y47	Z47	X48	Y48	Z48	X49	Y49	Z49	X50	Y50	Z50	X51	Y51	Z51	X52	Y52	Z52	

146	1.45	-113.2909088134766	990.351257324219	175.7217407226563	-292.1235656738282	1000.134216308594	243.8421936035157	-290.516815185547	1004.595703125	341.4913635253906	-116.2272567749024	989.167907714844	420.374969482422	-188.4631805419922	894.5147705078127	114.493766784668	-26.31182670593264	498.5149230957032	117.587387084961	-12.25660419464115	483.7427368164064	238.8938598632813	-17.72351264953615	430.407440185547	110.741081237793	48.12625122070312	434.1467285156251	159.4053802490235	63.16918945312499	91.1881561279297	148.4099884033203	97.64654541015625	110.6826248168946	233.3726654052735	36.29695510864256	27.45260810852051	196.280014038086	232.8060150146485	80.28940582275392	212.6232452392579	225.8400115966797	87.68189239501955	150.2534179687501	184.9652557373047	57.10654449462892	111.2048950195313	-224.3181762695314	895.153747558594	459.4944458007814	-249.4327392578126	476.0394287109376	413.1127624511719	-242.0705718994141	476.7945861816407	289.2208862304688	-273.1484985351564	410.7220153808595	414.3437194824219	-213.8403472900392	392.417205810547	350.2414245605469	-378.7513427734376	81.58354949951173	348.0642395019531	-341.8549194335939	96.4151306152344	259.50244140625	-428.2600097656252	36.97227096557618	297.7335205078125	-220.5065155029298	26.21803092956544	289.7007751464844	-226.0624237060548	37.29515838623048	347.2673645019532	-287.227020263672	25.87681198120118	398.1458435058594	-232.8223876953126	1504.230590820313	296.7284851074219	-299.7658081054689	1278.923217773438	301.1736450195312	-68.75901794433599	1269.901245117188	297.7620544433594	-116.8061523437501	1424.560668945313	298.6422729492188	-327.4915466308594	1304.997192382813	209.8769836425782	-295.0033264160157	1430.853515625	208.0230255126953	-243.7007598876954	1434.140502929688	118.1341094970703	-202.7352905273438	1435.93212890625	95.73236083984374	-227.3398437500001	1108.772827148438	5.846189022064182	-257.9642028808594	1089.35888671875	88.78578186035155	-264.9921875000001	1071.415649414063	29.21870040893552	-70.76943206787111	887.7922973632815	56.13007354736329	-111.555290222168	867.990661621094	-6.890416145324722	-18.71748542785646	811.0552978515627	51.21276473999025	-106.1818313598633	796.0066528320315	-3.988065958023085	-324.2660522460939	1312.88671875	389.9960937500001	-291.6307067871095	1432.035766601563	384.1407775878907	-251.0615692138673	1436.361450195313	480.3493957519532	-217.7441864013673	1431.8671875	514.2633666992189	-216.5713653564455	1101.610961914063	589.9118652343751	-247.6277770996095	1087.712646484375	524.2620239257814	-246.7512359619142	1065.158935546875	560.6494140625001	-47.33106994628913	886.9600219726565	549.8208618164064	-111.119613647461	864.9710693359377	596.8685913085939	-2.402162551879951	810.1191406250002	552.5277099609376	-92.3099899291993	793.5364990234377	602.9147949218751	
147	1.46	-105.7161407470704	989.064880371094	175.4790649414063	-284.8520812988282	998.9295043945315	242.6289672851563	-283.7663879394532	1003.565063476563	340.2909545898438	-109.8094177246095	988.266784667969	420.1779785156251	-180.7624969482422	892.9913330078127	113.9934234619141	-19.91494178771974	496.7055053710939	118.1058120727539	-6.870974063873322	481.9696655273439	239.5383758544922	-10.27200126647951	428.9015502929689	111.3178176879883	55.25493240356445	433.8526306152345	160.3182220458985	78.23359680175781	91.39001464843751	149.8169708251953	111.8468017578125	111.8820724487305	234.9633483886719	52.45793914794921	27.25456237792969	197.7087860107422	247.8543853759766	83.90700531005861	215.3614654541016	241.2214508056641	90.95606231689455	152.8893432617188	201.2283325195313	59.41540527343751	113.6424713134766	-218.2962341308595	894.3797607421877	458.8991088867189	-245.2754516601564	475.6280212402345	412.7960815429688	-237.3341522216798	476.2478942871095	288.9665222167969	-269.5583801269532	410.4963684082032	414.0276184082032	-210.2595977783204	391.5486450195314	350.1131896972657	-378.3044738769532	82.27762603759767	347.9717712402344	-341.3026428222657	96.79053497314456	259.4505920410156	-428.1944580078127	37.99721908569337	297.6603393554688	-220.5556182861329	26.19711875915528	289.7381896972657	-226.033676147461	37.2523536682129	347.3199157714844	-287.2276306152345	25.85646438598634	398.1139831542969	-225.5184173583985	1503.141479492188	295.5718383789063	-292.6203002929689	1278.007690429688	300.0294189453125	-61.55593490600591	1268.762451171875	297.2270507812501	-109.4630737304688	1423.48876953125	297.7463989257813	-320.2619323730469	1303.900268554688	208.9740295410157	-287.5328369140626	1429.738647460938	206.8793487548828	-236.143783569336	1432.754028320313	117.046745300293	-195.1643981933594	1434.425415039063	94.6647491455078	-221.4078521728516	1107.070068359375	5.83609485626218	-251.8858795166016	1088.06640625	88.86059570312499	-259.1694946289063	1070.1396484375	29.43424224853513	-66.83190155029298	884.587585449219	55.74079513549805	-108.0326309204102	865.2163696289065	-7.204419136047378	-15.75571155548097	807.1937255859377	50.72995758056642	-103.464828491211	793.2091064453127	-4.389185428619398	-317.272186279297	1312.113525390625	389.0296020507813	-284.463592529297	1431.203247070313	383.1100769042969	-243.8409576416017	1435.58740234375	479.4183349609376	-210.5218505859376	1430.971313476563	513.3330078125001	-208.8491210937501	1100.697509765625	589.3618164062501	-240.0928192138673	1086.701538085938	523.8394165039064	-239.0365447998048	1064.136474609375	560.2360229492189	-38.94643783569343	886.639831542969	548.6568603515626	-102.6363525390626	864.3508911132815	595.6738281250001	6.193009853362971	809.8836669921877	551.1572265625001	-83.65455627441415	792.976745605469	601.5198974609376	
148	1.47	-98.10871887207037	987.7937622070315	175.159896850586	-277.5120849609376	997.8237915039065	241.3941192626953	-276.9108886718751	1002.6259765625	339.0681762695312	-103.2765655517579	987.3729248046877	419.903045654297	-173.0266723632813	891.5485839843752	113.4248199462891	-13.18994808197023	495.0907287597657	118.5756759643555	-0.9574316740036307	480.4656066894532	240.0860443115235	-2.76523590087892	427.5219726562501	111.8912353515625	62.50850296020507	433.446014404297	161.1360168457032	91.50575256347656	91.51596832275392	151.3605346679688	124.5213088989258	112.8267364501953	236.6228332519532	66.63684844970702	27.07958030700684	199.3523864746094	261.1277465820313	86.64100646972658	217.831268310547	254.6881256103516	93.44209289550783	155.2820587158204	215.3698730468751	61.17729568481447	115.9417572021485	-212.185760498047	893.6572875976565	458.2547302246095	-241.0288543701173	475.252899169922	412.4862670898438	-232.5125274658204	475.7059020996095	288.7168579101562	-265.8815917968751	410.3178100585939	413.7301025390626	-206.592498779297	390.714569091797	350.0111083984376	-377.8260498046876	83.06140136718751	347.9271545410156	-340.7157592773439	97.24440002441409	259.4530029296875	-428.1120910644533	39.14897537231446	297.6367797851562	-220.6233673095704	26.18344497680665	289.7832031250001	-226.0101165771485	37.20655822753907	347.3805541992188	-287.2339172363282	25.83025932312012	398.0941162109376	-218.1479797363282	1502.093139648438	294.3322753906251	-285.3825073242189	1277.122192382813	298.8137817382812	-54.26551818847661	1267.676513671875	296.6112670898438	-102.0404739379884	1422.461059570313	296.7813110351563	-312.9400939941407	1302.845581054688	207.9698791503907	-279.9721984863282	1428.669189453125	205.6347961425782	-228.4743194580079	1431.4140625	115.867561340332	-187.476791381836	1432.963012695313	93.51248168945311	-215.3429107666016	1105.407104492188	5.776994228363011	-245.7163696289063	1086.832641601563	88.86446380615233	-253.2341308593751	1068.925170898438	29.57770156860349	-62.93638229370119	881.3720703125002	55.41471099853516	-104.4497528076172	862.485046386719	-7.497750282287612	-12.8580722808838	803.3186035156252	50.37639236450197	-100.7183532714844	790.4668579101565	-4.782296657562269	-310.2114562988282	1311.363037109375	387.9403686523438	-277.2363281250001	1430.404174804688	381.9766540527344	-236.5962677001954	1434.84033203125	478.3852844238282	-203.2806396484376	1430.1103515625	512.3176269531251	-201.1681213378908	1099.814453125	588.7096557617189	-232.5989074707032	1085.738647460938	523.3165283203126	-231.3715820312501	1063.15625	559.7164306640626	-30.60988044738777	886.3630981445315	547.3960571289064	-94.2269821166993	863.7559814453127	594.3435058593751	14.73313903808587	809.6887207031252	549.6762695312501	-75.08142089843759	792.438415527344	599.9578857421876	
149	1.48	-90.45873260498051	986.560241699219	174.7631530761719	-270.0960388183595	996.8298339843752	240.1424102783203	-269.9413146972657	1001.78955078125	337.8257446289062	-96.62412261962899	986.4940185546877	419.5468750000001	-165.2401733398438	890.2133789062502	112.7890319824219	-6.117824077606217	493.677703857422	119.0248031616211	5.493026256561251	479.2381896972657	240.5581665039063	4.815120697021471	426.2615661621095	112.475456237793	69.89994049072266	432.9078674316407	161.8998718261719	102.9736557006836	91.46932220458986	153.0025482177735	135.6356658935547	113.403060913086	238.3295440673829	78.78643798828124	26.82420158386231	201.1451416015626	272.6304321289063	88.34874725341798	220.0288391113282	266.2559509277344	95.00403594970705	157.4253082275391	227.3943634033203	62.26651763916017	118.0814056396485	-205.9835205078126	892.9975585937502	457.5586242675782	-236.7049865722657	474.9217224121095	412.1881408691407	-227.6182403564454	475.1723937988282	288.4723205566407	-262.1262512207032	410.1966247558595	413.4577636718751	-202.849334716797	389.9216308593751	349.9409179687501	-377.3165893554689	83.94088745117189	347.9449462890625	-340.093231201172	97.78379058837893	259.5222473144531	-428.0116271972658	40.43680953979493	297.6784057617188	-220.7115173339845	26.18169403076173	289.8374023437501	-225.991424560547	37.15705871582032	347.4500427246094	-287.2430725097657	25.79659461975098	398.0906677246094	-210.7091674804688	1501.09716796875	293.0108337402344	-278.0448608398439	1276.275390625	297.52978515625	-46.87840270996098	1266.660522460938	295.9062805175782	-94.5380477905274	1421.491943359375	295.7421569824219	-305.5207214355469	1301.842651367188	206.8683776855469	-272.3249511718751	1427.65625	204.2938232421875	-220.7001647949219	1430.136352539063	114.5989837646484	-179.6824493408203	1431.563720703125	92.27606964111327	-209.1388854980469	1103.805908203125	5.662102222442602	-239.4512786865235	1085.677978515625	88.79223632812499	-247.1797485351563	1067.7900390625	29.64359474182126	-59.08204650878908	878.1719360351565	55.15371704101563	-100.7817459106446	859.826843261719	-7.775371551513686	-10.01106834411622	799.463073730469	50.1649513244629	-97.91487884521487	787.8106689453127	-5.169496059417738	-303.0713195800782	1310.645141601563	386.7336730957032	-269.9397583007814	1429.648803710938	380.7413635253906	-229.3163299560548	1434.130126953125	477.2490844726564	-196.0076751708986	1429.298706054688	511.2149353027345	-193.5322418212892	1098.977661132813	587.9469604492189	-225.1456909179689	1084.841186523438	522.6803588867189	-223.7558441162111	1062.233520507813	559.0781250000001	-22.32703208923347	886.1399536132815	546.0360717773439	-85.89285278320321	863.202087402344	592.8825073242189	23.21316909790033	809.5460205078127	548.0853881835939	-66.59018707275399	791.9364013671877	598.2422485351564	
